<svg width="3300" height="2200" viewBox="0 0 3300 2200" fill="none" xmlns="http://www.w3.org/2000/svg">
<g id="github" clip-path="url(#clip0_2_2)">
<g id="Notes">
<path id="artboard" d="M3300 19H0V2219H3300V19Z" fill="white"/>
<path id="Vector" d="M263 311H3036" stroke="black" stroke-width="0.5"/>
<text id="Weight/Scale Variations" fill="black" xml:space="preserve" style="white-space: pre" font-family="Inter" font-size="13" font-weight="bold" letter-spacing="0em"><tspan x="263" y="340.727">Weight/Scale Variations</tspan></text>
<text id="Ultralight" fill="black" xml:space="preserve" style="white-space: pre" font-family="Inter" font-size="13" letter-spacing="0em"><tspan x="531.661" y="340.727">Ultralight</tspan></text>
<text id="Thin" fill="black" xml:space="preserve" style="white-space: pre" font-family="Inter" font-size="13" letter-spacing="0em"><tspan x="843.067" y="340.727">Thin</tspan></text>
<text id="Light" fill="black" xml:space="preserve" style="white-space: pre" font-family="Inter" font-size="13" letter-spacing="0em"><tspan x="1137.77" y="340.727">Light</tspan></text>
<text id="Regular" fill="black" xml:space="preserve" style="white-space: pre" font-family="Inter" font-size="13" letter-spacing="0em"><tspan x="1426.58" y="340.727">Regular</tspan></text>
<text id="Medium" fill="black" xml:space="preserve" style="white-space: pre" font-family="Inter" font-size="13" letter-spacing="0em"><tspan x="1721.99" y="340.727">Medium</tspan></text>
<text id="Semibold" fill="black" xml:space="preserve" style="white-space: pre" font-family="Inter" font-size="13" letter-spacing="0em"><tspan x="2014.65" y="340.727">Semibold</tspan></text>
<text id="Bold" fill="black" xml:space="preserve" style="white-space: pre" font-family="Inter" font-size="13" letter-spacing="0em"><tspan x="2326.29" y="340.727">Bold</tspan></text>
<text id="Heavy" fill="black" xml:space="preserve" style="white-space: pre" font-family="Inter" font-size="13" letter-spacing="0em"><tspan x="2617.32" y="340.727">Heavy</tspan></text>
<text id="Black" fill="black" xml:space="preserve" style="white-space: pre" font-family="Inter" font-size="13" letter-spacing="0em"><tspan x="2916.8" y="340.727">Black</tspan></text>
<path id="Vector_2" d="M263 1922H3036" stroke="black" stroke-width="0.5"/>
<g id="Group">
<path id="Vector_3" d="M272.248 1952.83C276.604 1952.83 280.139 1949.3 280.139 1944.95C280.139 1940.59 276.604 1937.07 272.248 1937.07C267.902 1937.07 264.367 1940.59 264.367 1944.95C264.367 1949.3 267.902 1952.83 272.248 1952.83ZM272.248 1951.35C268.713 1951.35 265.861 1948.48 265.861 1944.95C265.861 1941.41 268.713 1938.55 272.248 1938.55C275.783 1938.55 278.645 1941.41 278.645 1944.95C278.645 1948.48 275.783 1951.35 272.248 1951.35ZM268.654 1944.95C268.654 1945.38 268.957 1945.67 269.406 1945.67H271.506V1947.79C271.506 1948.23 271.799 1948.53 272.228 1948.53C272.678 1948.53 272.971 1948.23 272.971 1947.79V1945.67H275.09C275.529 1945.67 275.832 1945.38 275.832 1944.95C275.832 1944.51 275.529 1944.21 275.09 1944.21H272.971V1942.1C272.971 1941.65 272.678 1941.35 272.228 1941.35C271.799 1941.35 271.506 1941.65 271.506 1942.1V1944.21H269.406C268.957 1944.21 268.654 1944.51 268.654 1944.95Z" fill="black"/>
</g>
<g id="Group_2">
<path id="Vector_4" d="M293.215 1954.91C298.713 1954.91 303.176 1950.45 303.176 1944.95C303.176 1939.45 298.713 1934.99 293.215 1934.99C287.717 1934.99 283.254 1939.45 283.254 1944.95C283.254 1950.45 287.717 1954.91 293.215 1954.91ZM293.215 1953.25C288.625 1953.25 284.914 1949.54 284.914 1944.95C284.914 1940.36 288.625 1936.65 293.215 1936.65C297.805 1936.65 301.516 1940.36 301.516 1944.95C301.516 1949.54 297.805 1953.25 293.215 1953.25ZM288.684 1944.95C288.684 1945.43 289.016 1945.75 289.514 1945.75H292.385V1948.63C292.385 1949.12 292.717 1949.46 293.195 1949.46C293.684 1949.46 294.026 1949.13 294.026 1948.63V1945.75H296.906C297.395 1945.75 297.736 1945.43 297.736 1944.95C297.736 1944.46 297.395 1944.12 296.906 1944.12H294.026V1941.25C294.026 1940.75 293.684 1940.41 293.195 1940.41C292.717 1940.41 292.385 1940.75 292.385 1941.25V1944.12H289.514C289.016 1944.12 288.684 1944.46 288.684 1944.95Z" fill="black"/>
</g>
<g id="Group_3">
<path id="Vector_5" d="M319.895 1957.66C326.916 1957.66 332.619 1951.97 332.619 1944.95C332.619 1937.93 326.916 1932.22 319.895 1932.22C312.873 1932.22 307.18 1937.93 307.18 1944.95C307.18 1951.97 312.873 1957.66 319.895 1957.66ZM319.895 1955.85C313.869 1955.85 308.996 1950.97 308.996 1944.95C308.996 1938.92 313.869 1934.05 319.895 1934.05C325.92 1934.05 330.793 1938.92 330.793 1944.95C330.793 1950.97 325.92 1955.85 319.895 1955.85ZM314.123 1944.95C314.123 1945.47 314.494 1945.83 315.041 1945.83H318.987V1949.78C318.987 1950.32 319.358 1950.7 319.875 1950.7C320.412 1950.7 320.783 1950.33 320.783 1949.78V1945.83H324.739C325.276 1945.83 325.657 1945.47 325.657 1944.95C325.657 1944.4 325.285 1944.03 324.739 1944.03H320.783V1940.09C320.783 1939.54 320.412 1939.16 319.875 1939.16C319.358 1939.16 318.987 1939.54 318.987 1940.09V1944.03H315.041C314.494 1944.03 314.123 1944.4 314.123 1944.95Z" fill="black"/>
</g>
<text id="Design Variations" fill="black" xml:space="preserve" style="white-space: pre" font-family="Inter" font-size="13" font-weight="bold" letter-spacing="0em"><tspan x="263" y="1971.73">Design Variations</tspan></text>
<text id="Symbols are supported in up to nine weights and three scales." fill="black" xml:space="preserve" style="white-space: pre" font-family="Inter" font-size="13" letter-spacing="0em"><tspan x="263" y="1989.73">Symbols are supported in up to nine weights and three scales.</tspan></text>
<text id="For optimal layout with text and other symbols, vertically align" fill="black" xml:space="preserve" style="white-space: pre" font-family="Inter" font-size="13" letter-spacing="0em"><tspan x="263" y="2007.73">For optimal layout with text and other symbols, vertically align</tspan></text>
<text id="symbols with the adjacent text." fill="black" xml:space="preserve" style="white-space: pre" font-family="Inter" font-size="13" letter-spacing="0em"><tspan x="263" y="2025.73">symbols with the adjacent text.</tspan></text>
<path id="Vector_6" d="M776 1938V1952" stroke="#00AEEF" stroke-width="0.5"/>
<g id="Group_4">
<path id="Vector_7" d="M779.311 1952.16C779.828 1952.16 780.082 1951.96 780.268 1951.41L781.527 1947.97H787.289L788.549 1951.41C788.734 1951.96 788.988 1952.16 789.496 1952.16C790.014 1952.16 790.346 1951.84 790.346 1951.36C790.346 1951.19 790.316 1951.03 790.238 1950.83L785.658 1938.63C785.434 1938.04 785.033 1937.73 784.408 1937.73C783.803 1937.73 783.393 1938.03 783.178 1938.62L778.598 1950.84C778.52 1951.04 778.49 1951.2 778.49 1951.37C778.49 1951.85 778.803 1952.16 779.311 1952.16ZM782.006 1946.48L784.379 1939.91H784.428L786.801 1946.48H782.006Z" fill="black"/>
</g>
<path id="Vector_8" d="M792.836 1938V1952" stroke="#00AEEF" stroke-width="0.5"/>
<text id="Margins" fill="black" xml:space="preserve" style="white-space: pre" font-family="Inter" font-size="13" font-weight="bold" letter-spacing="0em"><tspan x="776" y="1971.73">Margins</tspan></text>
<text id="Leading and trailing margins on the left and right side of each symbol" fill="black" xml:space="preserve" style="white-space: pre" font-family="Inter" font-size="13" letter-spacing="0em"><tspan x="776" y="1989.73">Leading and trailing margins on the left and right side of each symbol</tspan></text>
<text id="can be adjusted by modifying the x-location of the margin guidelines." fill="black" xml:space="preserve" style="white-space: pre" font-family="Inter" font-size="13" letter-spacing="0em"><tspan x="776" y="2007.73">can be adjusted by modifying the x-location of the margin guidelines.</tspan></text>
<text id="Modifications are automatically applied proportionally to all" fill="black" xml:space="preserve" style="white-space: pre" font-family="Inter" font-size="13" letter-spacing="0em"><tspan x="776" y="2025.73">Modifications are automatically applied proportionally to all</tspan></text>
<text id="scales and weights." fill="black" xml:space="preserve" style="white-space: pre" font-family="Inter" font-size="13" letter-spacing="0em"><tspan x="776" y="2043.73">scales and weights.</tspan></text>
<g id="Group_5">
<path id="Vector_9" d="M1291.84 1953.87L1293.54 1955.57C1294.4 1956.44 1295.39 1956.38 1296.31 1955.36L1307.01 1943.57L1306.04 1942.6L1295.43 1954.28C1295.07 1954.68 1294.74 1954.77 1294.27 1954.3L1293.1 1953.14C1292.63 1952.68 1292.74 1952.34 1293.14 1951.98L1304.62 1941.18L1303.64 1940.21L1292.05 1951.1C1291.06 1952.02 1290.98 1953 1291.84 1953.87ZM1298.26 1935.67C1297.84 1936.08 1297.81 1936.66 1298.04 1937.05C1298.28 1937.41 1298.74 1937.64 1299.38 1937.48C1300.85 1937.14 1302.37 1937.08 1303.79 1938.02L1303.21 1939.47C1302.87 1940.3 1303.04 1940.89 1303.58 1941.43L1305.88 1943.75C1306.36 1944.24 1306.77 1944.26 1307.34 1944.16L1308.4 1943.96L1309.07 1944.64L1309.03 1945.19C1308.99 1945.69 1309.12 1946.07 1309.61 1946.55L1310.37 1947.29C1310.85 1947.77 1311.46 1947.8 1311.93 1947.33L1314.84 1944.41C1315.31 1943.94 1315.29 1943.35 1314.81 1942.87L1314.04 1942.11C1313.56 1941.63 1313.19 1941.47 1312.71 1941.51L1312.13 1941.56L1311.49 1940.93L1311.73 1939.8C1311.86 1939.24 1311.71 1938.8 1311.12 1938.21L1308.92 1936.02C1305.58 1932.7 1301.15 1932.78 1298.26 1935.67ZM1299.75 1936.04C1302.18 1934.27 1305.47 1934.57 1307.7 1936.79L1310.13 1939.21C1310.37 1939.44 1310.41 1939.63 1310.34 1939.97L1310.02 1941.45L1311.52 1942.94L1312.51 1942.88C1312.76 1942.87 1312.84 1942.89 1313.03 1943.08L1313.61 1943.66L1311.17 1946.1L1310.59 1945.53C1310.4 1945.33 1310.37 1945.25 1310.38 1944.99L1310.45 1944.01L1308.95 1942.53L1307.43 1942.78C1307.11 1942.85 1306.96 1942.82 1306.71 1942.59L1304.71 1940.58C1304.46 1940.35 1304.43 1940.18 1304.59 1939.81L1305.46 1937.72C1303.9 1936.27 1301.87 1935.64 1299.84 1936.24C1299.68 1936.28 1299.63 1936.15 1299.75 1936.04Z" fill="black"/>
</g>
<text id="Exporting" fill="black" xml:space="preserve" style="white-space: pre" font-family="Inter" font-size="13" font-weight="bold" letter-spacing="0em"><tspan x="1289" y="1971.73">Exporting</tspan></text>
<text id="Symbols should be outlined when exporting to ensure the" fill="black" xml:space="preserve" style="white-space: pre" font-family="Inter" font-size="13" letter-spacing="0em"><tspan x="1289" y="1989.73">Symbols should be outlined when exporting to ensure the</tspan></text>
<text id="design is preserved when submitting to Xcode." fill="black" xml:space="preserve" style="white-space: pre" font-family="Inter" font-size="13" letter-spacing="0em"><tspan x="1289" y="2007.73">design is preserved when submitting to Xcode.</tspan></text>
<text id="template-version" fill="black" xml:space="preserve" style="white-space: pre" font-family="Inter" font-size="13" letter-spacing="0em"><tspan x="2946.54" y="1951.73">Template v.6.0</tspan></text>
<text id="Requires Xcode 16 or greater" fill="black" xml:space="preserve" style="white-space: pre" font-family="Inter" font-size="13" letter-spacing="0em"><tspan x="2858.16" y="1969.73">Requires Xcode 16 or greater</tspan></text>
<text id="descriptive-name" fill="black" xml:space="preserve" style="white-space: pre" font-family="Inter" font-size="13" letter-spacing="0em"><tspan x="2713.74" y="1987.73">Generated from square.and.arrow.down.badge.clock</tspan></text>
<text id="Typeset at 100.0 points" fill="black" xml:space="preserve" style="white-space: pre" font-family="Inter" font-size="13" letter-spacing="0em"><tspan x="2892.56" y="2005.73">Typeset at 100.0 points</tspan></text>
<text id="Small" fill="black" xml:space="preserve" style="white-space: pre" font-family="Inter" font-size="13" letter-spacing="0em"><tspan x="263" y="744.727">Small</tspan></text>
<text id="Medium_2" fill="black" xml:space="preserve" style="white-space: pre" font-family="Inter" font-size="13" letter-spacing="0em"><tspan x="263" y="1174.73">Medium</tspan></text>
<text id="Large" fill="black" xml:space="preserve" style="white-space: pre" font-family="Inter" font-size="13" letter-spacing="0em"><tspan x="263" y="1604.73">Large</tspan></text>
</g>
<g id="Guides">
<g id="H-reference">
<path id="Vector_10" d="M339.994 696H342.638L368.328 628.868H369.03V625.541H367.123L339.994 696ZM350.688 671.52H385.981L385.231 669.272H351.438L350.688 671.52ZM394.12 696H396.764L369.638 625.541H368.433V628.868L394.12 696Z" fill="#27AAE1"/>
</g>
<path id="Baseline-S" d="M263 696H3036" stroke="#27AAE1" stroke-width="0.5"/>
<path id="Capline-S" d="M263 625.541H3036" stroke="#27AAE1" stroke-width="0.5"/>
<g id="H-reference_2">
<path id="Vector_11" d="M339.994 1126H342.638L368.328 1058.87H369.03V1055.54H367.123L339.994 1126ZM350.688 1101.52H385.981L385.231 1099.27H351.438L350.688 1101.52ZM394.12 1126H396.764L369.638 1055.54H368.433V1058.87L394.12 1126Z" fill="#27AAE1"/>
</g>
<path id="Baseline-M" d="M263 1126H3036" stroke="#27AAE1" stroke-width="0.5"/>
<path id="Capline-M" d="M263 1055.54H3036" stroke="#27AAE1" stroke-width="0.5"/>
<g id="H-reference_3">
<path id="Vector_12" d="M339.994 1556H342.638L368.328 1488.87H369.03V1485.54H367.123L339.994 1556ZM350.688 1531.52H385.981L385.231 1529.27H351.438L350.688 1531.52ZM394.12 1556H396.764L369.638 1485.54H368.433V1488.87L394.12 1556Z" fill="#27AAE1"/>
</g>
<path id="Baseline-L" d="M263 1556H3036" stroke="#27AAE1" stroke-width="0.5"/>
<path id="Capline-L" d="M263 1485.54H3036" stroke="#27AAE1" stroke-width="0.5"/>
<path id="right-margin-Black-S" d="M2980.81 600.785V720.121" stroke="#FF3B30" stroke-width="0.5"/>
<path id="left-margin-Black-S" d="M2885.99 600.785V720.121" stroke="#00AEEF" stroke-width="0.5"/>
<path id="right-margin-Regular-S" d="M1493.96 600.785V720.121" stroke="#FF3B30" stroke-width="0.5"/>
<path id="left-margin-Regular-S" d="M1405.73 600.785V720.121" stroke="#00AEEF" stroke-width="0.5"/>
<path id="right-margin-Ultralight-S" d="M601.625 600.785V720.121" stroke="#FF3B30" stroke-width="0.5"/>
<path id="left-margin-Ultralight-S" d="M517.797 600.785V720.121" stroke="#00AEEF" stroke-width="0.5"/>
</g>
<g id="Symbols">
<g id="Black-S">
<g id="Vector_13">
<mask id="path-55-inside-1_2_2" fill="white">
<path fill-rule="evenodd" clip-rule="evenodd" d="M2935.39 625C2914.71 625 2898 641.729 2898 662.425C2898 678.969 2908.71 692.973 2923.57 697.929C2925.42 698.302 2926.1 697.124 2926.1 696.133C2926.1 695.266 2926.04 692.292 2926.04 689.193C2915.64 691.424 2913.48 684.731 2913.48 684.731C2911.8 680.394 2909.33 679.279 2909.33 679.279C2905.92 676.987 2909.58 676.987 2909.58 676.987C2913.35 677.235 2915.33 680.828 2915.33 680.828C2918.67 686.528 2924.06 684.918 2926.23 683.926C2926.54 681.51 2927.53 679.837 2928.58 678.907C2920.28 678.04 2911.56 674.818 2911.56 660.442C2911.56 656.353 2913.04 653.007 2915.39 650.405C2915.02 649.476 2913.72 645.633 2915.77 640.49C2915.77 640.49 2918.92 639.499 2926.04 644.332C2929.09 643.513 2932.23 643.096 2935.39 643.093C2938.55 643.093 2941.76 643.527 2944.73 644.332C2951.85 639.499 2955.01 640.49 2955.01 640.49C2957.05 645.633 2955.75 649.476 2955.38 650.405C2957.8 653.007 2959.22 656.353 2959.22 660.442C2959.22 674.818 2950.49 677.977 2942.14 678.907C2943.5 680.085 2944.67 682.315 2944.67 685.847C2944.67 690.866 2944.61 694.894 2944.61 696.132C2944.61 697.124 2945.29 698.302 2947.15 697.93C2962.01 692.972 2972.71 678.969 2972.71 662.425C2972.78 641.729 2956 625 2935.39 625Z"/>
</mask>
<path fill-rule="evenodd" clip-rule="evenodd" d="M2935.39 625C2914.71 625 2898 641.729 2898 662.425C2898 678.969 2908.71 692.973 2923.57 697.929C2925.42 698.302 2926.1 697.124 2926.1 696.133C2926.1 695.266 2926.04 692.292 2926.04 689.193C2915.64 691.424 2913.48 684.731 2913.48 684.731C2911.8 680.394 2909.33 679.279 2909.33 679.279C2905.92 676.987 2909.58 676.987 2909.58 676.987C2913.35 677.235 2915.33 680.828 2915.33 680.828C2918.67 686.528 2924.06 684.918 2926.23 683.926C2926.54 681.51 2927.53 679.837 2928.58 678.907C2920.28 678.04 2911.56 674.818 2911.56 660.442C2911.56 656.353 2913.04 653.007 2915.39 650.405C2915.02 649.476 2913.72 645.633 2915.77 640.49C2915.77 640.49 2918.92 639.499 2926.04 644.332C2929.09 643.513 2932.23 643.096 2935.39 643.093C2938.55 643.093 2941.76 643.527 2944.73 644.332C2951.85 639.499 2955.01 640.49 2955.01 640.49C2957.05 645.633 2955.75 649.476 2955.38 650.405C2957.8 653.007 2959.22 656.353 2959.22 660.442C2959.22 674.818 2950.49 677.977 2942.14 678.907C2943.5 680.085 2944.67 682.315 2944.67 685.847C2944.67 690.866 2944.61 694.894 2944.61 696.132C2944.61 697.124 2945.29 698.302 2947.15 697.93C2962.01 692.972 2972.71 678.969 2972.71 662.425C2972.78 641.729 2956 625 2935.39 625Z" stroke="black" mask="url(#path-55-inside-1_2_2)"/>
</g>
</g>
<g id="Regular-S">
<g id="Vector_14">
<mask id="path-56-inside-2_2_2" fill="white">
<path fill-rule="evenodd" clip-rule="evenodd" d="M1449.39 625C1428.71 625 1412 641.729 1412 662.425C1412 678.969 1422.71 692.973 1437.57 697.929C1439.42 698.302 1440.1 697.124 1440.1 696.133C1440.1 695.266 1440.04 692.292 1440.04 689.193C1429.64 691.424 1427.48 684.731 1427.48 684.731C1425.8 680.394 1423.33 679.279 1423.33 679.279C1419.92 676.987 1423.58 676.987 1423.58 676.987C1427.35 677.235 1429.33 680.828 1429.33 680.828C1432.67 686.528 1438.06 684.918 1440.23 683.926C1440.54 681.51 1441.53 679.837 1442.58 678.907C1434.28 678.04 1425.56 674.818 1425.56 660.442C1425.56 656.353 1427.04 653.007 1429.39 650.405C1429.02 649.476 1427.72 645.633 1429.77 640.49C1429.77 640.49 1432.92 639.499 1440.04 644.332C1443.09 643.513 1446.23 643.096 1449.39 643.093C1452.55 643.093 1455.76 643.527 1458.73 644.332C1465.85 639.499 1469.01 640.49 1469.01 640.49C1471.05 645.633 1469.75 649.476 1469.38 650.405C1471.8 653.007 1473.22 656.353 1473.22 660.442C1473.22 674.818 1464.49 677.977 1456.14 678.907C1457.5 680.085 1458.67 682.315 1458.67 685.847C1458.67 690.866 1458.61 694.894 1458.61 696.132C1458.61 697.124 1459.29 698.302 1461.15 697.93C1476.01 692.972 1486.71 678.969 1486.71 662.425C1486.78 641.729 1470 625 1449.39 625Z"/>
</mask>
<path fill-rule="evenodd" clip-rule="evenodd" d="M1449.39 625C1428.71 625 1412 641.729 1412 662.425C1412 678.969 1422.71 692.973 1437.57 697.929C1439.42 698.302 1440.1 697.124 1440.1 696.133C1440.1 695.266 1440.04 692.292 1440.04 689.193C1429.64 691.424 1427.48 684.731 1427.48 684.731C1425.8 680.394 1423.33 679.279 1423.33 679.279C1419.92 676.987 1423.58 676.987 1423.58 676.987C1427.35 677.235 1429.33 680.828 1429.33 680.828C1432.67 686.528 1438.06 684.918 1440.23 683.926C1440.54 681.51 1441.53 679.837 1442.58 678.907C1434.28 678.04 1425.56 674.818 1425.56 660.442C1425.56 656.353 1427.04 653.007 1429.39 650.405C1429.02 649.476 1427.72 645.633 1429.77 640.49C1429.77 640.49 1432.92 639.499 1440.04 644.332C1443.09 643.513 1446.23 643.096 1449.39 643.093C1452.55 643.093 1455.76 643.527 1458.73 644.332C1465.85 639.499 1469.01 640.49 1469.01 640.49C1471.05 645.633 1469.75 649.476 1469.38 650.405C1471.8 653.007 1473.22 656.353 1473.22 660.442C1473.22 674.818 1464.49 677.977 1456.14 678.907C1457.5 680.085 1458.67 682.315 1458.67 685.847C1458.67 690.866 1458.61 694.894 1458.61 696.132C1458.61 697.124 1459.29 698.302 1461.15 697.93C1476.01 692.972 1486.71 678.969 1486.71 662.425C1486.78 641.729 1470 625 1449.39 625Z" stroke="black" mask="url(#path-56-inside-2_2_2)"/>
</g>
</g>
<g id="Ultralight-S">
<g id="Vector_15">
<mask id="path-57-inside-3_2_2" fill="white">
<path fill-rule="evenodd" clip-rule="evenodd" d="M560.388 625C539.714 625 523 641.729 523 662.425C523 678.969 533.709 692.973 548.565 697.929C550.422 698.302 551.103 697.124 551.103 696.133C551.103 695.266 551.042 692.292 551.042 689.193C540.641 691.424 538.475 684.731 538.475 684.731C536.804 680.394 534.327 679.279 534.327 679.279C530.923 676.987 534.575 676.987 534.575 676.987C538.351 677.235 540.333 680.828 540.333 680.828C543.675 686.528 549.06 684.918 551.227 683.926C551.536 681.51 552.527 679.837 553.579 678.907C545.284 678.04 536.557 674.818 536.557 660.442C536.557 656.353 538.041 653.007 540.394 650.405C540.023 649.476 538.722 645.633 540.766 640.49C540.766 640.49 543.923 639.499 551.041 644.332C554.088 643.513 557.231 643.096 560.388 643.093C563.545 643.093 566.763 643.527 569.735 644.332C576.854 639.499 580.011 640.49 580.011 640.49C582.054 645.633 580.753 649.476 580.382 650.405C582.796 653.007 584.22 656.353 584.22 660.442C584.22 674.818 575.492 677.977 567.135 678.907C568.497 680.085 569.673 682.315 569.673 685.847C569.673 690.866 569.612 694.894 569.612 696.132C569.612 697.124 570.293 698.302 572.149 697.93C587.006 692.972 597.715 678.969 597.715 662.425C597.776 641.729 581.001 625 560.388 625Z"/>
</mask>
<path fill-rule="evenodd" clip-rule="evenodd" d="M560.388 625C539.714 625 523 641.729 523 662.425C523 678.969 533.709 692.973 548.565 697.929C550.422 698.302 551.103 697.124 551.103 696.133C551.103 695.266 551.042 692.292 551.042 689.193C540.641 691.424 538.475 684.731 538.475 684.731C536.804 680.394 534.327 679.279 534.327 679.279C530.923 676.987 534.575 676.987 534.575 676.987C538.351 677.235 540.333 680.828 540.333 680.828C543.675 686.528 549.06 684.918 551.227 683.926C551.536 681.51 552.527 679.837 553.579 678.907C545.284 678.04 536.557 674.818 536.557 660.442C536.557 656.353 538.041 653.007 540.394 650.405C540.023 649.476 538.722 645.633 540.766 640.49C540.766 640.49 543.923 639.499 551.041 644.332C554.088 643.513 557.231 643.096 560.388 643.093C563.545 643.093 566.763 643.527 569.735 644.332C576.854 639.499 580.011 640.49 580.011 640.49C582.054 645.633 580.753 649.476 580.382 650.405C582.796 653.007 584.22 656.353 584.22 660.442C584.22 674.818 575.492 677.977 567.135 678.907C568.497 680.085 569.673 682.315 569.673 685.847C569.673 690.866 569.612 694.894 569.612 696.132C569.612 697.124 570.293 698.302 572.149 697.93C587.006 692.972 597.715 678.969 597.715 662.425C597.776 641.729 581.001 625 560.388 625Z" stroke="black" mask="url(#path-57-inside-3_2_2)"/>
</g>
</g>
</g>
</g>
<defs>
<clipPath id="clip0_2_2">
<rect width="3300" height="2200" fill="white"/>
</clipPath>
</defs>
</svg>
